<?xml version="1.0" encoding="utf-8"?>
<!-- Generator: Adobe Illustrator 15.0.0, SVG Export Plug-In . SVG Version: 6.00 Build 0)  -->
<!DOCTYPE svg PUBLIC "-//W3C//DTD SVG 1.1//EN" "http://www.w3.org/Graphics/SVG/1.1/DTD/svg11.dtd">
<svg version="1.1" xmlns="http://www.w3.org/2000/svg" xmlns:xlink="http://www.w3.org/1999/xlink" x="0px" y="0px" width="419px"
	 height="432px" viewBox="0 0 419 432" enable-background="new 0 0 419 432" xml:space="preserve">
<g id="Layer_1" display="none">
	<g display="inline">
		<g>
			<g>
				<defs>
					<rect id="SVGID_1_" x="-6.5" width="432" height="432"/>
				</defs>
				<clipPath id="SVGID_2_">
					<use xlink:href="#SVGID_1_"  overflow="visible"/>
				</clipPath>
				<g transform="matrix(1 0 0 1 6.574282e-008 1.126318e-007)" clip-path="url(#SVGID_2_)">
					
						<image overflow="visible" width="1824" height="1824" xlink:href="DB6F738D.png"  transform="matrix(0.24 0 0 0.24 -9.3345 -2.8345)">
					</image>
				</g>
			</g>
		</g>
	</g>
</g>
<g id="Layer_2">
	
		<line fill="none" stroke="#000000" stroke-width="10" stroke-linecap="round" stroke-miterlimit="10" x1="123" y1="110" x2="171" y2="268.667"/>
	
		<line fill="none" stroke="#000000" stroke-width="10" stroke-linecap="round" stroke-miterlimit="10" x1="175.468" y1="228.437" x2="83.066" y2="278.844"/>
	
		<line fill="none" stroke="#000000" stroke-width="10" stroke-linecap="round" stroke-miterlimit="10" x1="271.696" y1="104" x2="331.491" y2="280.219"/>
	
		<line fill="none" stroke="#000000" stroke-width="10" stroke-linecap="round" stroke-miterlimit="10" x1="301.593" y1="101.542" x2="271.696" y2="101.542"/>
	
		<line fill="none" stroke="#000000" stroke-width="15" stroke-linecap="round" stroke-miterlimit="10" x1="166.094" y1="233.81" x2="223.89" y2="212.954"/>
	
		<line fill="none" stroke="#000000" stroke-width="15" stroke-linecap="round" stroke-miterlimit="10" x1="223.89" y1="212.954" x2="304.885" y2="217.494"/>
	
		<circle fill="none" stroke="#000000" stroke-width="10" stroke-linecap="round" stroke-miterlimit="10" cx="83.066" cy="278.844" r="46.333"/>
	
		<circle fill="none" stroke="#000000" stroke-width="10" stroke-linecap="round" stroke-miterlimit="10" cx="331.491" cy="280.219" r="46.333"/>
	
		<circle fill="none" stroke="#000000" stroke-width="5" stroke-linecap="round" stroke-miterlimit="10" cx="171" cy="270.207" r="17.54"/>
	<g>
		<path d="M140.805,115.566c-8.501,1.965-17.217,3.423-25.888,1.648c-6.779-1.388-18.09-3.787-13.572-12.77
			c5.001-9.944,15.177-7.665,15.177-7.665s10.333,0.357,26.229,0.583c4.593,0.033,9.181-0.137,13.773-0.188
			c5.868-0.064,10.822,1.159,9.287,7.57C163.514,108.667,154.533,111.66,140.805,115.566z"/>
	</g>
</g>
</svg>
