<?xml version="1.0" standalone="no"?>
<!DOCTYPE svg PUBLIC "-//W3C//DTD SVG 20010904//EN"
 "http://www.w3.org/TR/2001/REC-SVG-20010904/DTD/svg10.dtd">
<svg version="1.0" xmlns="http://www.w3.org/2000/svg"
 width="543.000000pt" height="543.000000pt" viewBox="0 0 543.000000 543.000000"
 preserveAspectRatio="xMidYMid meet">
<metadata>
Created by potrace 1.11, written by Peter Selinger 2001-2013
</metadata>
<g transform="translate(0.000000,543.000000) scale(0.100000,-0.100000)"
fill="#000000" stroke="none">
<path d="M0 2715 l0 -2715 2715 0 2715 0 0 2715 0 2715 -2715 0 -2715 0 0
-2715z m3124 1787 c16 -9 38 -30 50 -45 21 -28 21 -36 24 -620 l2 -592 73 70
c118 116 254 175 442 195 166 17 306 -6 451 -76 149 -71 265 -199 342 -376
138 -320 137 -783 -3 -1086 -77 -167 -209 -305 -360 -377 -107 -51 -189 -73
-311 -81 -231 -16 -449 62 -599 215 -27 28 -53 51 -57 51 -4 0 -8 -105 -8
-233 0 -263 -7 -305 -68 -421 -71 -135 -213 -245 -363 -281 -294 -69 -579 98
-674 395 -15 44 -19 103 -23 298 l-4 243 -72 -68 c-87 -83 -200 -145 -317
-173 -105 -25 -279 -27 -382 -4 -278 62 -446 278 -447 575 0 91 29 211 66 275
57 97 165 178 301 225 32 11 195 49 363 84 394 84 435 96 461 138 17 27 20 45
17 112 -9 183 -123 280 -344 293 -253 14 -402 -74 -454 -267 -22 -84 -92 -122
-194 -107 -132 20 -168 124 -96 283 120 265 425 400 819 363 200 -19 320 -63
421 -156 71 -67 114 -139 142 -239 22 -79 22 -90 28 -950 5 -869 5 -870 27
-911 84 -156 288 -188 412 -63 72 71 65 -79 71 1654 5 1488 6 1562 23 1597 41
81 156 110 241 60z"/>
<path d="M3600 3216 c-208 -58 -336 -218 -385 -481 -24 -125 -16 -385 14 -500
80 -304 271 -459 541 -442 259 17 414 171 465 465 19 104 21 375 5 477 -41
260 -154 418 -338 475 -74 23 -229 26 -302 6z"/>
<path d="M1990 2533 c-19 -8 -143 -39 -275 -69 -286 -64 -360 -87 -422 -127
-157 -104 -160 -359 -5 -472 199 -144 555 -48 670 181 42 85 62 186 69 355 3
82 4 149 2 148 -2 0 -20 -7 -39 -16z"/>
</g>
</svg>
